<svg width="30" height="30" viewBox="0 0 30 30" fill="none" xmlns="http://www.w3.org/2000/svg">
<path d="M15 0C8.75607 0 3.67627 5.07981 3.67627 11.3236C3.67627 13.9047 5.4914 17.7291 9.0713 22.6905C11.6847 26.3124 14.3361 29.2632 14.3625 29.2926L14.9999 30L15.6373 29.2926C15.6638 29.2633 18.3151 26.3125 20.9285 22.6905C24.5084 17.729 26.3235 13.9047 26.3235 11.3236C26.3236 5.07981 21.2438 0 15 0ZM14.9999 27.4223C11.8204 23.7594 5.3923 15.4923 5.3923 11.3236C5.39222 6.02598 9.70225 1.71595 15 1.71595C20.2977 1.71595 24.6077 6.02598 24.6077 11.3236C24.6077 15.4899 18.1794 23.7586 14.9999 27.4223Z" fill="#41AA75"/>
<path d="M14.9999 15.5875C17.3547 15.5875 19.2637 13.6785 19.2637 11.3237C19.2637 8.96888 17.3547 7.05992 14.9999 7.05992C12.645 7.05992 10.7361 8.96888 10.7361 11.3237C10.7361 13.6785 12.645 15.5875 14.9999 15.5875Z" fill="#41AA75"/>
</svg>
