<svg width="30" height="30" viewBox="0 0 30 30" fill="none" xmlns="http://www.w3.org/2000/svg">
<path d="M27.6899 3.75317H2.31013C1.03797 3.75317 0 4.79114 0 6.06329V23.9367C0 25.2089 1.03797 26.2469 2.31013 26.2469H27.6899C28.962 26.2469 30 25.2089 30 23.9367V6.06329C30 4.79114 28.962 3.75317 27.6899 3.75317ZM27.3544 5.46203L15.1582 15.8924L2.96203 5.46203H27.3544ZM28.2911 23.9367C28.2911 24.2658 28.019 24.538 27.6899 24.538H2.31013C1.98101 24.538 1.70886 24.2658 1.70886 23.9367V6.63924L14.6013 17.6646C14.6076 17.6709 14.6203 17.6772 14.6266 17.6836C14.6329 17.6899 14.6456 17.6962 14.6519 17.7025C14.6709 17.7152 14.6835 17.7279 14.7025 17.7342C14.7089 17.7405 14.7152 17.7405 14.7215 17.7468C14.7468 17.7595 14.7722 17.7722 14.7975 17.7848C14.8038 17.7848 14.8101 17.7911 14.8165 17.7911C14.8354 17.7975 14.8544 17.8101 14.8797 17.8165C14.8861 17.8165 14.8987 17.8228 14.9051 17.8228C14.9241 17.8291 14.943 17.8355 14.962 17.8355C14.9684 17.8355 14.981 17.8418 14.9873 17.8418C15.0063 17.8481 15.0316 17.8481 15.0506 17.8544C15.057 17.8544 15.0633 17.8544 15.0696 17.8544C15.0949 17.8544 15.1266 17.8608 15.1519 17.8608C15.1772 17.8608 15.2089 17.8608 15.2342 17.8544C15.2405 17.8544 15.2468 17.8544 15.2532 17.8544C15.2722 17.8544 15.2975 17.8481 15.3165 17.8418C15.3228 17.8418 15.3354 17.8355 15.3418 17.8355C15.3608 17.8291 15.3797 17.8228 15.3987 17.8228C15.4051 17.8228 15.4177 17.8165 15.4241 17.8165C15.443 17.8101 15.462 17.8038 15.4873 17.7911C15.4937 17.7911 15.5 17.7848 15.5063 17.7848C15.5316 17.7722 15.557 17.7595 15.5823 17.7468C15.5886 17.7405 15.5949 17.7405 15.6013 17.7342C15.6203 17.7215 15.6329 17.7152 15.6519 17.7025C15.6582 17.6962 15.6709 17.6899 15.6772 17.6836C15.6835 17.6772 15.6962 17.6709 15.7025 17.6646L28.2911 6.9114V23.9367Z" fill="#41AA75"/>
</svg>
