<svg width="27" height="22" viewBox="0 0 27 22" fill="none" xmlns="http://www.w3.org/2000/svg">
<path d="M2.97368 21.5951H24.0263C25.2249 21.5951 26.2 20.62 26.2 19.4214V16.7898C26.2 16.3162 25.8157 15.9319 25.3421 15.9319C24.8685 15.9319 24.4842 16.3162 24.4842 16.7898V19.4214C24.4842 19.6741 24.279 19.8793 24.0263 19.8793H2.97368C2.72098 19.8793 2.51579 19.6741 2.51579 19.4214V16.7898C2.51579 16.3162 2.13151 15.9319 1.65789 15.9319C1.18428 15.9319 0.8 16.3162 0.8 16.7898V19.4214C0.8 20.62 1.77507 21.5951 2.97368 21.5951Z" fill="#41AA75" stroke="#41AA75" stroke-width="0.4"/>
<path d="M7.52822 8.84307L12.6421 3.72922V16.7898C12.6421 17.2634 13.0263 17.6477 13.5 17.6477C13.9736 17.6477 14.3579 17.2634 14.3579 16.7898V3.72922L19.4717 8.84307C19.6402 9.01155 19.8604 9.09375 20.0789 9.09375C20.2984 9.09375 20.5178 9.00963 20.6854 8.84379L20.6861 8.84307C21.0208 8.50838 21.0208 7.96464 20.6861 7.62996L14.1072 1.05101C13.7725 0.716329 13.2287 0.716329 12.8941 1.05101L6.31511 7.62996C5.98043 7.96464 5.98043 8.50838 6.31511 8.84307C6.6498 9.17775 7.19353 9.17775 7.52822 8.84307Z" fill="#41AA75" stroke="#41AA75" stroke-width="0.4"/>
</svg>
