<svg width="34" height="23" viewBox="0 0 34 23" fill="none" xmlns="http://www.w3.org/2000/svg">
<path d="M31.8267 10.7295C31.72 10.7038 31.6192 10.6796 31.5296 10.6529C30.5136 10.35 30.0499 10.184 29.7071 9.42518L28.4084 6.4111C27.991 5.48744 26.9133 4.73594 26.0059 4.73594H23.6938V1.25544C23.6938 0.63051 23.2503 0.12204 22.705 0.12204L6.60113 0.140578C6.07053 0.140578 5.67042 0.623937 5.67042 1.26496V2.2937H1.54503C0.693126 2.29378 0 3.08826 0 4.06492C0 5.04158 0.693126 5.83606 1.54503 5.83606H5.67034V7.53363H2.96936C2.11746 7.53363 1.42433 8.32819 1.42433 9.30476C1.42433 10.2813 2.11746 11.0759 2.96936 11.0759H5.67034V12.7735H4.39369C3.54179 12.7735 2.84866 13.568 2.84866 14.5446C2.84866 15.5212 3.54179 16.3157 4.39369 16.3157H5.67034V18.0913C5.67034 18.7162 6.1139 19.2247 6.65905 19.2247H8.3342C8.59509 21.2743 10.1383 22.8536 11.9977 22.8536C13.8573 22.8536 15.4006 21.2743 15.6615 19.2247H22.4409C22.4761 19.2247 22.5122 19.222 22.5482 19.2193C22.8071 21.2715 24.3513 22.8536 26.2123 22.8536C28.0719 22.8536 29.6152 21.2743 29.8762 19.2247H32.2823C33.2295 19.2247 34.0001 18.3414 34.0001 17.2557V13.9146C34 11.2522 32.6921 10.9376 31.8267 10.7295ZM26.2123 17.0662C26.9548 17.0662 27.5588 17.7584 27.5588 18.6093C27.5588 19.4601 26.9548 20.1523 26.2123 20.1523C25.4702 20.1523 24.8664 19.4601 24.8664 18.6093C24.8664 17.7584 25.4702 17.0662 26.2123 17.0662ZM23.6938 10.4895V6.37975H25.4607C26.1398 6.37975 26.9775 6.96389 27.2885 7.65169L28.4441 10.3338C28.4686 10.3881 28.494 10.4398 28.5204 10.4894H23.6938V10.4895ZM13.3442 18.6092C13.3442 19.4599 12.7402 20.1522 11.9977 20.1522C11.2556 20.1522 10.6518 19.46 10.6518 18.6092C10.6518 17.7583 11.2556 17.0661 11.9977 17.0661C12.7402 17.0662 13.3442 17.7584 13.3442 18.6092Z" fill="#41AA75"/>
</svg>
