<svg width="21" height="25" viewBox="0 0 21 25" fill="none" xmlns="http://www.w3.org/2000/svg">
<path d="M9.6052 6.96314L9.32608 8.10019L7.98855 8.10036L7.86134 8.10892C7.40375 8.171 7.05105 8.56325 7.05105 9.03786L7.05961 9.16507C7.12169 9.62267 7.51394 9.97536 7.98855 9.97536L8.86733 9.97519L8.38233 11.9577L7.38745 11.9589L7.26024 11.9674C6.80264 12.0295 6.44995 12.4217 6.44995 12.8964L6.45851 13.0236C6.52059 13.4811 6.91283 13.8339 7.38745 13.8339L7.92354 13.8327L7.76974 14.4667L7.74783 14.5924C7.6994 15.0516 7.99661 15.4874 8.45758 15.6001L8.5832 15.622C9.04245 15.6705 9.47833 15.3732 9.59108 14.9122L9.85358 13.8327H11.7773L11.6305 14.4801L11.6105 14.606C11.5687 15.066 11.8723 15.4974 12.335 15.6034L12.4608 15.6234C12.9207 15.6651 13.3521 15.3615 13.4581 14.8989L13.7011 13.8327L14.877 13.8339L15.0041 13.8252C15.4617 13.7632 15.8145 13.371 15.8145 12.8964L15.8058 12.7691C15.7437 12.3115 15.3515 11.9589 14.877 11.9589L14.1311 11.9577L14.5848 9.97519L15.4848 9.97536L15.6121 9.96681C16.0697 9.90472 16.4223 9.51249 16.4223 9.03786L16.4138 8.91065C16.3517 8.45306 15.9595 8.10036 15.4848 8.10036L15.0148 8.10019L15.1772 7.39525L15.1973 7.26934C15.239 6.80944 14.9353 6.37805 14.4727 6.27206L14.3468 6.252C13.887 6.21031 13.4556 6.5139 13.3496 6.97652L13.0911 8.10019H11.2561L11.4265 7.40864L11.4485 7.28304C11.4968 6.8238 11.1996 6.38801 10.7386 6.27524C10.2357 6.15221 9.7282 6.4602 9.6052 6.96314ZM10.7973 9.97519H12.6611L12.2073 11.9577H10.3123L10.7973 9.97519Z" fill="#41AA75"/>
<path d="M3.125 0C1.39911 0 0 1.39911 0 3.125V21.875C0 23.6009 1.39911 25 3.125 25H19.6875C20.2052 25 20.625 24.5802 20.625 24.0625C20.625 23.5448 20.2052 23.125 19.6875 23.125H3.125C2.43465 23.125 1.875 22.5654 1.875 21.875H19.6875C20.2052 21.875 20.625 21.4552 20.625 20.9375V3.125C20.625 1.39911 19.2259 0 17.5 0H3.125ZM18.75 20H1.875V3.125C1.875 2.43465 2.43465 1.875 3.125 1.875H17.5C18.1904 1.875 18.75 2.43465 18.75 3.125V20Z" fill="#41AA75"/>
</svg>
