<svg width="23" height="30" viewBox="0 0 23 30" fill="none" xmlns="http://www.w3.org/2000/svg">
<path d="M3.69603 0.798951L5.77094 0.173521C7.72469 -0.415389 9.81213 0.536345 10.6488 2.3975L11.9404 5.27068C12.6536 6.85706 12.2778 8.72143 11.0057 9.90763L8.7495 12.0116C8.72162 12.0376 8.69872 12.0685 8.68196 12.1028C8.44598 12.5851 8.80358 13.8739 9.92796 15.8214C11.1953 18.0164 12.1748 18.885 12.6272 18.7501L15.589 17.8446C17.2518 17.3362 19.0539 17.9425 20.0713 19.3526L21.9057 21.8949C23.0966 23.5453 22.8824 25.8223 21.4047 27.2218L19.827 28.7158C18.7127 29.7712 17.1523 30.2142 15.6496 29.9018C11.2531 28.9878 7.31397 25.4473 3.79933 19.3597C0.281229 13.2662 -0.814103 8.08031 0.598924 3.81345C1.07885 2.36425 2.23439 1.23953 3.69603 0.798951ZM4.23717 2.59422C3.36019 2.85856 2.66686 3.5334 2.37891 4.40291C1.16138 8.07944 2.1476 12.7487 5.42317 18.4222C8.69561 24.0902 12.2426 27.2784 16.0312 28.066C16.9328 28.2534 17.8691 27.9877 18.5377 27.3544L20.1154 25.8603C20.9111 25.1068 21.0264 23.8807 20.3851 22.992L18.5508 20.4497C18.0029 19.6904 17.0326 19.364 16.1372 19.6377L13.1691 20.5452C11.5264 21.0349 9.98239 19.6657 8.30412 16.7589C6.88336 14.298 6.39015 12.5206 6.99767 11.2788C7.11507 11.0388 7.27544 10.8223 7.47078 10.6402L9.72694 8.53631C10.4119 7.89759 10.6143 6.89369 10.2303 6.03949L8.93862 3.16631C8.4881 2.16415 7.3641 1.65168 6.31208 1.96879L4.23717 2.59422Z" fill="#41AA75"/>
</svg>
