<svg width="750" height="59" viewBox="0 0 750 59" fill="none" xmlns="http://www.w3.org/2000/svg">
<path fill-rule="evenodd" clip-rule="evenodd" d="M16 53.5C17.6569 53.5 19 52.1569 19 50.5C19 48.8431 17.6569 47.5 16 47.5C14.3431 47.5 13 48.8431 13 50.5C13 52.1569 14.3431 53.5 16 53.5ZM16 58.5C20.4183 58.5 24 54.9183 24 50.5C24 46.0817 20.4183 42.5 16 42.5C11.5817 42.5 8 46.0817 8 50.5C8 54.9183 11.5817 58.5 16 58.5Z" fill="#41AA75"/>
<path d="M22 48H729V53H22V48Z" fill="#41AA75"/>
<path fill-rule="evenodd" clip-rule="evenodd" d="M734 53.5C735.657 53.5 737 52.1569 737 50.5C737 48.8431 735.657 47.5 734 47.5C732.343 47.5 731 48.8431 731 50.5C731 52.1569 732.343 53.5 734 53.5ZM734 58.5C738.418 58.5 742 54.9183 742 50.5C742 46.0817 738.418 42.5 734 42.5C729.582 42.5 726 46.0817 726 50.5C726 54.9183 729.582 58.5 734 58.5Z" fill="#41AA75"/>
<path d="M16 0C7.3862 0 0.5 6.8862 0.5 15.5C0.5 18.4789 1.38802 20.7797 2.92995 23.1128L14.3693 40.4695C14.7164 40.9943 15.3138 41.3333 16 41.3333C16.6862 41.3333 17.2917 40.9862 17.6307 40.4695L29.0701 23.1128C30.612 20.7797 31.5 18.4789 31.5 15.5C31.5 6.8862 24.6138 0 16 0ZM16 27.5448C9.33984 27.5448 3.94713 22.144 3.94713 15.4758C3.94713 8.81562 9.34792 3.40677 16 3.40677C22.6602 3.40677 28.0529 8.80755 28.0529 15.4758C28.0529 22.144 22.6602 27.5448 16 27.5448Z" fill="#41AA75"/>
<path d="M10.8148 20.644C10.3948 20.644 10.0948 20.5 9.91476 20.212C9.73476 19.924 9.74076 19.576 9.93276 19.168L14.6848 8.63802C14.8408 8.29002 15.0268 8.04402 15.2428 7.90002C15.4708 7.74402 15.7288 7.66602 16.0168 7.66602C16.2928 7.66602 16.5388 7.74402 16.7548 7.90002C16.9828 8.04402 17.1748 8.29002 17.3308 8.63802L22.1008 19.168C22.2928 19.588 22.3048 19.942 22.1368 20.23C21.9688 20.506 21.6808 20.644 21.2728 20.644C20.9368 20.644 20.6728 20.566 20.4808 20.41C20.3008 20.242 20.1388 19.99 19.9948 19.654L19.0948 17.566H12.9028L12.0208 19.654C11.8648 20.002 11.7028 20.254 11.5348 20.41C11.3668 20.566 11.1268 20.644 10.8148 20.644ZM15.9808 10.312L13.6948 15.73H18.3028L16.0168 10.312H15.9808Z" fill="#41AA75"/>
<path d="M734 0C725.386 0 718.5 6.8862 718.5 15.5C718.5 18.4789 719.388 20.7797 720.93 23.1128L732.369 40.4695C732.716 40.9943 733.314 41.3333 734 41.3333C734.686 41.3333 735.292 40.9862 735.631 40.4695L747.07 23.1128C748.612 20.7797 749.5 18.4789 749.5 15.5C749.5 6.8862 742.614 0 734 0ZM734 27.5448C727.34 27.5448 721.947 22.144 721.947 15.4758C721.947 8.81562 727.348 3.40677 734 3.40677C740.66 3.40677 746.053 8.80755 746.053 15.4758C746.053 22.144 740.66 27.5448 734 27.5448Z" fill="#41AA75"/>
<path d="M730.414 21.5C729.598 21.5 729.19 21.092 729.19 20.276V10.034C729.19 9.218 729.598 8.81 730.414 8.81H734.734C736.066 8.81 737.098 9.104 737.83 9.692C738.562 10.268 738.928 11.072 738.928 12.104C738.928 12.788 738.754 13.376 738.406 13.868C738.058 14.36 737.578 14.72 736.966 14.948C737.686 15.152 738.244 15.512 738.64 16.028C739.048 16.532 739.252 17.174 739.252 17.954C739.252 19.082 738.868 19.958 738.1 20.582C737.344 21.194 736.288 21.5 734.932 21.5H730.414ZM731.404 14.192H734.338C735.91 14.192 736.696 13.586 736.696 12.374C736.696 11.162 735.91 10.556 734.338 10.556H731.404V14.192ZM731.404 19.754H734.644C736.228 19.754 737.02 19.118 737.02 17.846C737.02 16.574 736.228 15.938 734.644 15.938H731.404V19.754Z" fill="#41AA75"/>
</svg>
