<svg xmlns="http://www.w3.org/2000/svg" width="27" height="30" viewBox="-1 -1 27 30" fill="none" stroke="#41AA75" stroke-width="1"><rect id="backgroundrect" width="100%" height="100%" x="0" y="0" fill="none" stroke="none"/>

<g class="currentLayer" style=""><title>Layer 1</title><path d="M25 6.47789C25 6.47048 24.9972 6.464 24.9968 6.45659C24.9949 6.42234 24.9907 6.389 24.9819 6.35659C24.9778 6.34271 24.9713 6.33021 24.9657 6.31678C24.956 6.29178 24.9468 6.26771 24.9329 6.24502C24.9245 6.23113 24.9139 6.21909 24.9046 6.20659C24.8898 6.18669 24.8745 6.16724 24.8569 6.15011C24.8449 6.13854 24.831 6.12835 24.8176 6.11817C24.8051 6.10845 24.7944 6.09687 24.781 6.08808C24.7731 6.08345 24.7644 6.08113 24.7565 6.07696C24.75 6.07326 24.7449 6.06771 24.738 6.06447L12.238 0.0459466C12.1065 -0.0174794 11.9532 -0.0151645 11.8236 0.052428L0.249537 6.07095C0.244444 6.07372 0.241204 6.07789 0.236111 6.08067C0.231019 6.08345 0.225 6.08484 0.219444 6.08808C0.203704 6.0978 0.191667 6.11076 0.177315 6.12234C0.163889 6.13298 0.149537 6.14271 0.137037 6.15474C0.119444 6.17234 0.105556 6.19178 0.0912037 6.21169C0.0819445 6.22465 0.0708333 6.23622 0.0629629 6.25011C0.0486111 6.27465 0.0388888 6.30104 0.0296296 6.32789C0.0254629 6.33946 0.0194445 6.34965 0.0162037 6.36169C0.00601856 6.39965 0 6.43993 0 6.48113V21.2959C0 21.4714 0.0990741 21.6316 0.256018 21.7103L12.2931 27.7288C12.3 27.7321 12.3074 27.7307 12.3144 27.7339C12.3741 27.7598 12.4361 27.7774 12.5 27.7774C12.5639 27.7774 12.6264 27.7598 12.6856 27.7334C12.6926 27.7302 12.7005 27.7316 12.7069 27.7284L24.744 21.7098C24.9009 21.6316 25 21.4714 25 21.2959V6.47789ZM12.0449 0.980206L23.4861 6.489L12.5 11.9821L1.48194 6.47326L12.0449 0.980206ZM0.925926 7.23021L12.037 12.7858V26.5654L0.925926 21.0098V7.23021ZM24.0741 21.0098L12.963 26.5654V12.7858L24.0741 7.23021V21.0098Z" fill="#41AA75" id="svg_1" class="selected"/><rect fill="#41aa75" stroke-width="0" stroke-linejoin="round" stroke-dashoffset="" fill-rule="nonzero" id="svg_3" x="10" y="7" width="1" height="0" style="color: rgb(65, 170, 117);"/><path fill="#41aa75" fill-opacity="1" stroke="none" stroke-opacity="1" stroke-width="0" stroke-dasharray="none" stroke-linejoin="round" stroke-linecap="butt" stroke-dashoffset="" fill-rule="nonzero" opacity="1" marker-start="" marker-mid="" marker-end="" id="svg_2" d="M0.6836728458197783,7.244897724110253 " style="color: rgb(65, 170, 117);"/><path fill="#41aa75" fill-opacity="1" stroke="none" stroke-opacity="1" stroke-width="0" stroke-dasharray="none" stroke-linejoin="round" stroke-linecap="butt" stroke-dashoffset="" fill-rule="nonzero" opacity="1" marker-start="" marker-mid="" marker-end="" id="svg_4" d="M12.683672845819771,27.16326507104903 " style="color: rgb(65, 170, 117);"/><path fill="#41AA75" fill-opacity="1" stroke="#41aa75" stroke-opacity="1" stroke-width="1.9" stroke-dasharray="none" stroke-linejoin="miter" stroke-linecap="butt" stroke-dashoffset="" fill-rule="nonzero" opacity="1" marker-start="" marker-mid="" marker-end="" d="M12.030611621329975,1.4489793567633136L12.438774886636104,11.489795683293924" id="svg_5"/></g></svg>