<svg width="714" height="30" viewBox="0 0 714 30" fill="none" xmlns="http://www.w3.org/2000/svg">
<path d="M255 12H459V18H255V12Z" fill="#41AA75"/>
<path d="M482 12H688V18H482V12Z" fill="#585F58"/>
<path fill-rule="evenodd" clip-rule="evenodd" d="M15 24C19.9706 24 24 19.9706 24 15C24 10.0294 19.9706 6 15 6C10.0294 6 6 10.0294 6 15C6 19.9706 10.0294 24 15 24ZM15 30C23.2843 30 30 23.2843 30 15C30 6.71573 23.2843 0 15 0C6.71573 0 0 6.71573 0 15C0 23.2843 6.71573 30 15 30Z" fill="#41AA75"/>
<path fill-rule="evenodd" clip-rule="evenodd" d="M243 24C247.971 24 252 19.9706 252 15C252 10.0294 247.971 6 243 6C238.029 6 234 10.0294 234 15C234 19.9706 238.029 24 243 24ZM243 30C251.284 30 258 23.2843 258 15C258 6.71573 251.284 0 243 0C234.716 0 228 6.71573 228 15C228 23.2843 234.716 30 243 30Z" fill="#41AA75"/>
<path fill-rule="evenodd" clip-rule="evenodd" d="M471 24C475.971 24 480 19.9706 480 15C480 10.0294 475.971 6 471 6C466.029 6 462 10.0294 462 15C462 19.9706 466.029 24 471 24ZM471 30C479.284 30 486 23.2843 486 15C486 6.71573 479.284 0 471 0C462.716 0 456 6.71573 456 15C456 23.2843 462.716 30 471 30Z" fill="#41AA75"/>
<path fill-rule="evenodd" clip-rule="evenodd" d="M699 24C703.971 24 708 19.9706 708 15C708 10.0294 703.971 6 699 6C694.029 6 690 10.0294 690 15C690 19.9706 694.029 24 699 24ZM699 30C707.284 30 714 23.2843 714 15C714 6.71573 707.284 0 699 0C690.716 0 684 6.71573 684 15C684 23.2843 690.716 30 699 30Z" fill="#585F58"/>
<path d="M27 12H231V18H27V12Z" fill="#41AA75"/>
</svg>
