<svg width="27" height="22" viewBox="0 0 27 22" fill="none" xmlns="http://www.w3.org/2000/svg">
<path d="M2.97368 21.5951H24.0263C25.2249 21.5951 26.2 20.62 26.2 19.4214V16.7898C26.2 16.3162 25.8157 15.9319 25.3421 15.9319C24.8685 15.9319 24.4842 16.3162 24.4842 16.7898V19.4214C24.4842 19.6741 24.279 19.8793 24.0263 19.8793H2.97368C2.72098 19.8793 2.51579 19.6741 2.51579 19.4214V16.7898C2.51579 16.3162 2.13151 15.9319 1.65789 15.9319C1.18428 15.9319 0.8 16.3162 0.8 16.7898V19.4214C0.8 20.62 1.77507 21.5951 2.97368 21.5951Z" fill="#41AA75" stroke="#41AA75" stroke-width="0.4"/>
<path d="M19.473 9.60463L14.3592 14.7185L14.3592 1.6579C14.3592 1.18428 13.9749 0.799999 13.5013 0.799999C13.0277 0.799999 12.6434 1.18428 12.6434 1.6579L12.6434 14.7185L7.52953 9.60463C7.36105 9.43615 7.14085 9.35395 6.92232 9.35395C6.70286 9.35395 6.48339 9.43806 6.31583 9.60391L6.31511 9.60463C5.98042 9.93932 5.98042 10.4831 6.31511 10.8177L12.8941 17.3967C13.2287 17.7314 13.7725 17.7314 14.1072 17.3967L20.6861 10.8177C21.0208 10.4831 21.0208 9.93932 20.6861 9.60463C20.3514 9.26995 19.8077 9.26995 19.473 9.60463Z" fill="#41AA75" stroke="#41AA75" stroke-width="0.4"/>
</svg>
