<svg width="27" height="27" viewBox="0 0 27 27" fill="none" xmlns="http://www.w3.org/2000/svg">
<path d="M23.1417 5.49819L23.1194 5.34901H22.9686H18.6092L19.6286 1.74002L19.6315 1.72988L19.6331 1.71947C19.6489 1.61852 19.6566 1.40823 19.5709 1.21404C19.5266 1.11361 19.4555 1.01365 19.3446 0.939597C19.2333 0.86525 19.094 0.825 18.9268 0.825H8.12967C7.97905 0.825 7.76882 0.893386 7.61231 1.03611C7.44363 1.18993 7.33901 1.43029 7.4279 1.74033C7.42794 1.74048 7.42799 1.74062 7.42803 1.74076L8.44722 5.34901H4.08268H3.93223L3.90966 5.49776L0.826979 25.8199L0.796452 26.0211H1H26H26.203L26.1731 25.8203L23.1417 5.49819ZM9.90922 5.34901L9.04715 2.24189H17.948L17.0906 5.34901H9.90922ZM2.42434 24.6555L5.141 6.76076H21.8641L24.5757 24.6555H2.42434Z" fill="#41AA75" stroke="#41AA75" stroke-width="0.35"/>
<path d="M13.2026 12.0238L13.4751 11.7298H13.0743H11.6381H11.562L11.5102 11.7854L8.78168 14.7078V11.9048V11.7298H8.60668H7.53979H7.36479V11.9048V18.5574V18.7324H7.53979H8.65797H8.83297V18.5574V16.7626L9.60574 15.9031L11.6577 18.6068L11.7102 18.676H11.7971H13.1256H13.4696L13.267 18.398L10.6384 14.7905L13.2026 12.0238Z" fill="#41AA75" stroke="#41AA75" stroke-width="0.35"/>
<path d="M18.7113 15.1408V15.3158H18.5363V17.0221C18.1544 17.2406 17.681 17.372 17.1161 17.372C16.5228 17.372 16.0351 17.1776 15.6447 16.7872C15.2583 16.4008 15.0599 15.8642 15.0599 15.208C15.0599 14.5529 15.2573 14.0211 15.6932 13.6363L15.6932 13.6363L15.6939 13.6357C16.1384 13.239 16.6302 13.0441 17.2803 13.0441C17.6071 13.0441 17.8883 13.0465 18.1175 13.1391C18.3663 13.2396 18.6188 13.3894 18.8748 13.5913L19.0159 13.7025L19.1234 13.5586L19.7594 12.7071L19.854 12.5805L19.7376 12.4736C19.0631 11.8534 18.2177 11.5759 17.2238 11.5759C16.2131 11.5759 15.3773 11.9725 14.6588 12.6325C13.9256 13.306 13.5917 14.1553 13.5917 15.208C13.5917 16.2675 13.9865 17.1115 14.6534 17.7785C15.3261 18.4511 16.2239 18.7889 17.2238 18.7889C18.3758 18.7889 19.3311 18.4602 20.0143 17.7223L20.0609 17.672V17.6034V15.3158V15.1408H19.8859H18.7677H18.7113Z" fill="#41AA75" stroke="#41AA75" stroke-width="0.35"/>
</svg>
